<?xml version="1.0" encoding="utf-8"?>
<!-- Generator: Adobe Illustrator 27.2.0, SVG Export Plug-In . SVG Version: 6.00 Build 0)  -->
<svg version="1.1" id="Layer_1" xmlns="http://www.w3.org/2000/svg" xmlns:xlink="http://www.w3.org/1999/xlink" x="0px" y="0px"
	 viewBox="0 0 400 400" style="enable-background:new 0 0 400 400;" xml:space="preserve">
<style type="text/css">
	.st0{fill:#BA0517;}
	.st1{fill:#FFFFFF;}
	.st2{fill:#009CD9;stroke:#000000;stroke-width:14;stroke-miterlimit:10;}
</style>
<g>
	<path class="st0" d="M350,400H50c-27.6,0-50-22.4-50-50V50C0,22.4,22.4,0,50,0h300c27.6,0,50,22.4,50,50v300
		C400,377.6,377.6,400,350,400z"/>
</g>
<g>
	<g>
		<path class="st1" d="M323.4,157H72.6c-5.2,0-9.6,4.1-9.6,8.9v135.1c0,14.9,13.1,27,28.9,27H304c15.9,0,28.9-12.1,28.9-27V166.1
			C333,161,328.8,157,323.4,157z M149.8,283c0,4.9-4.2,8.9-9.6,8.9h-19.4c-5.2,0-9.6-4.1-9.6-8.9v-18c0-4.9,4.2-8.9,9.6-8.9h19.4
			c5.2,0,9.6,4.1,9.6,8.9V283z M149.8,219.9c0,4.9-4.2,8.9-9.6,8.9h-19.4c-5.2,0-9.6-4.1-9.6-8.9v-18.1c0-4.9,4.2-8.9,9.6-8.9h19.4
			c5.2,0,9.6,4.1,9.6,8.9C149.8,202,149.8,219.9,149.8,219.9z M217.4,283c0,4.9-4.2,8.9-9.6,8.9h-19.4c-5.2,0-9.6-4.1-9.6-8.9v-18
			c0-4.9,4.2-8.9,9.6-8.9h19.4c5.2,0,9.6,4.1,9.6,8.9V283z M217.4,219.9c0,4.9-4.2,8.9-9.6,8.9h-19.4c-5.2,0-9.6-4.1-9.6-8.9v-18.1
			c0-4.9,4.2-8.9,9.6-8.9h19.4c5.2,0,9.6,4.1,9.6,8.9V219.9z M284.8,283c0,4.9-4.2,8.9-9.6,8.9h-19.4c-5.2,0-9.6-4.1-9.6-8.9v-18
			c0-4.9,4.2-8.9,9.6-8.9h19.4c5.2,0,9.6,4.1,9.6,8.9V283z M284.8,219.9c0,4.9-4.2,8.9-9.6,8.9h-19.4c-5.2,0-9.6-4.1-9.6-8.9v-18.1
			c0-4.9,4.2-8.9,9.6-8.9h19.4c5.2,0,9.6,4.1,9.6,8.9V219.9z"/>
	</g>
	<g>
		<path class="st1" d="M304.1,85.1H280v-9c0-9.9-8.7-18.1-19.4-18.1c-10.6,0-19.2,8-19.2,18v9h-86.7v-9c0-9.9-8.7-18.1-19.2-18.1
			c-10.5,0-19.2,8.1-19.2,18.1v9H91.9C76.1,85.1,63,97.3,63,112v8.9c0,4.9,4.2,8.9,9.6,8.9h250.8c5.2,0,9.6-4.1,9.6-8.9V112
			C333,97.3,319.9,85.1,304.1,85.1z"/>
	</g>
</g>
<g>
	<path class="st2" d="M305.9,101h-65.7c-9.7,0-18.3,5.8-21.8,14.8l-40.8,105.3c-3.1,7.8,2.7,15.9,10.9,15.9h66.8l-24.9,87
		c-2.3,8.2,7.8,13.6,13.2,7L346,209.8c6.6-7.4,1.2-19.4-8.9-19.4h-50.5l44.3-71.5c4.7-7.8-0.8-17.9-10.1-17.9H305.9z"/>
</g>
</svg>